<svg width="631.173" height="186.089" viewBox="0 0 166.998 49.236" xml:space="preserve" xmlns="http://www.w3.org/2000/svg"><defs><clipPath clipPathUnits="userSpaceOnUse" id="a"><path class="powerclip" d="M124.305 27.405h57.664v57.664h-57.664zm23.365 7.918a.93.93 0 0 0-.93.93v3.557c0 .515.415.93.93.93h10.933c.516 0 .93-.415.93-.93v-3.556a.93.93 0 0 0-.93-.93zm21.016 17.964c-.559 0-1.01.45-1.01 1.01v3.293c0 .559.451 1.01 1.01 1.01h5.566c.56 0 1.01-.451 1.01-1.01v-3.293c0-.56-.45-1.01-1.01-1.01z"/></clipPath><path id="b" d="M233.313 156.423h233.313v159.858H233.313z"/></defs><path style="opacity:1;fill:none;fill-opacity:1;stroke:#fff;stroke-width:10.8095;stroke-dasharray:none;stroke-opacity:1" d="M170.378 62.768a18.437 18.437 0 0 1-23.77 10.711 18.437 18.437 0 0 1-10.714-23.769 18.437 18.437 0 0 1 23.768-10.717 18.437 18.437 0 0 1 10.72 23.767" clip-path="url(#a)" transform="matrix(.51835 0 0 .59835 48.263 -8.302)"/><path style="fill:none;fill-opacity:1;stroke:#fff;stroke-width:2.548;stroke-dasharray:none;stroke-opacity:1" d="M163.3 60.087a10.87 10.87 0 0 1-14.012 6.314 10.87 10.87 0 0 1-6.316-14.012 10.87 10.87 0 0 1 14.011-6.317 10.87 10.87 0 0 1 6.32 14.01" transform="matrix(.51835 0 0 .59835 48.263 -8.302)"/><text xml:space="preserve" transform="translate(-282.337 -194.949)scale(1.20217)" style="font-style:normal;font-variant:normal;font-weight:400;font-stretch:normal;font-size:40px;line-height:1.25;font-family:Arial;-inkscape-font-specification:Arial;white-space:pre;shape-inside:url(#b);display:inline;fill:#fff;fill-opacity:1;stroke:none"><tspan x="233.313" y="192.454"><tspan style="font-weight:700;-inkscape-font-specification:&quot;Arial Bold&quot;">MRm</tspan><tspan style="font-weight:700;-inkscape-font-specification:&quot;Arial Bold&quot;" dx="15">x</tspan></tspan></text></svg>